<svg xmlns="http://www.w3.org/2000/svg" xmlns:xlink="http://www.w3.org/1999/xlink" width="50" zoomAndPan="magnify" viewBox="0 0 37.5 37.499999" height="50" preserveAspectRatio="xMidYMid meet" version="1.0"><defs><clipPath id="55a6c56226"><path d="M 1.179688 1 L 35.964844 1 L 35.964844 37 L 1.179688 37 Z M 1.179688 1 " clip-rule="nonzero"/></clipPath><clipPath id="260131a400"><path d="M 12.953125 12.953125 L 14.136719 12.953125 L 14.136719 14.136719 L 12.953125 14.136719 Z M 12.953125 12.953125 " clip-rule="nonzero"/></clipPath><clipPath id="97a8b2378f"><path d="M 13.542969 12.953125 C 13.21875 12.953125 12.953125 13.21875 12.953125 13.542969 C 12.953125 13.871094 13.21875 14.136719 13.542969 14.136719 C 13.871094 14.136719 14.136719 13.871094 14.136719 13.542969 C 14.136719 13.21875 13.871094 12.953125 13.542969 12.953125 Z M 13.542969 12.953125 " clip-rule="nonzero"/></clipPath></defs><g clip-path="url(#55a6c56226)"><path fill="#000000" d="M 24.121094 24.859375 L 28.019531 19.535156 C 28.441406 18.960938 28.808594 18.347656 29.117188 17.707031 C 29.429688 17.0625 29.675781 16.394531 29.863281 15.707031 C 30.050781 15.015625 30.171875 14.316406 30.230469 13.601562 C 30.289062 12.890625 30.277344 12.179688 30.203125 11.46875 C 30.132812 10.757812 29.992188 10.0625 29.789062 9.375 C 29.585938 8.691406 29.324219 8.03125 29 7.394531 C 28.671875 6.757812 28.292969 6.15625 27.855469 5.589844 C 27.421875 5.019531 26.9375 4.5 26.402344 4.019531 C 25.871094 3.542969 25.300781 3.117188 24.6875 2.742188 C 24.078125 2.371094 23.4375 2.054688 22.765625 1.796875 C 22.097656 1.542969 21.410156 1.347656 20.707031 1.21875 C 20 1.089844 19.289062 1.023438 18.574219 1.023438 C 17.855469 1.023438 17.144531 1.089844 16.441406 1.21875 C 15.734375 1.347656 15.046875 1.542969 14.378906 1.796875 C 13.707031 2.054688 13.070312 2.371094 12.457031 2.742188 C 11.847656 3.117188 11.273438 3.542969 10.742188 4.019531 C 10.210938 4.5 9.726562 5.019531 9.289062 5.589844 C 8.851562 6.15625 8.472656 6.757812 8.148438 7.394531 C 7.824219 8.03125 7.558594 8.691406 7.355469 9.375 C 7.152344 10.0625 7.015625 10.757812 6.941406 11.46875 C 6.867188 12.179688 6.859375 12.890625 6.914062 13.601562 C 6.972656 14.316406 7.09375 15.015625 7.28125 15.707031 C 7.46875 16.394531 7.71875 17.0625 8.027344 17.707031 C 8.335938 18.347656 8.703125 18.960938 9.125 19.535156 L 13.023438 24.859375 C 6.546875 25.578125 1.179688 27.574219 1.179688 30.765625 C 1.179688 34.84375 9.929688 36.976562 18.574219 36.976562 C 27.214844 36.976562 35.964844 34.84375 35.964844 30.765625 C 35.964844 27.574219 30.601562 25.574219 24.121094 24.859375 Z M 10.714844 18.378906 C 10.363281 17.902344 10.058594 17.394531 9.800781 16.859375 C 9.542969 16.320312 9.339844 15.769531 9.183594 15.195312 C 9.027344 14.621094 8.925781 14.039062 8.878906 13.445312 C 8.832031 12.855469 8.835938 12.261719 8.898438 11.671875 C 8.960938 11.082031 9.074219 10.5 9.246094 9.929688 C 9.414062 9.359375 9.632812 8.8125 9.902344 8.28125 C 10.171875 7.753906 10.488281 7.253906 10.851562 6.78125 C 11.214844 6.308594 11.617188 5.875 12.058594 5.476562 C 12.503906 5.078125 12.976562 4.726562 13.488281 4.414062 C 13.996094 4.101562 14.527344 3.839844 15.085938 3.628906 C 15.640625 3.414062 16.210938 3.253906 16.796875 3.144531 C 17.386719 3.039062 17.976562 2.984375 18.574219 2.984375 C 19.167969 2.984375 19.761719 3.039062 20.347656 3.144531 C 20.933594 3.253906 21.503906 3.414062 22.0625 3.628906 C 22.617188 3.839844 23.148438 4.101562 23.660156 4.414062 C 24.167969 4.722656 24.640625 5.078125 25.085938 5.476562 C 25.527344 5.875 25.929688 6.308594 26.292969 6.78125 C 26.65625 7.253906 26.972656 7.753906 27.242188 8.28125 C 27.511719 8.8125 27.734375 9.359375 27.902344 9.929688 C 28.070312 10.5 28.183594 11.082031 28.246094 11.671875 C 28.308594 12.261719 28.316406 12.855469 28.265625 13.445312 C 28.21875 14.039062 28.117188 14.621094 27.960938 15.195312 C 27.808594 15.769531 27.601562 16.320312 27.34375 16.859375 C 27.085938 17.394531 26.78125 17.902344 26.429688 18.378906 L 18.574219 29.105469 Z M 18.574219 35.015625 C 9.15625 35.015625 3.148438 32.5 3.148438 30.765625 C 3.148438 29.308594 7.414062 27.300781 14.375 26.699219 L 17.777344 31.34375 C 17.871094 31.472656 17.988281 31.570312 18.125 31.640625 C 18.265625 31.710938 18.414062 31.746094 18.574219 31.746094 C 18.730469 31.746094 18.878906 31.710938 19.019531 31.640625 C 19.160156 31.570312 19.277344 31.472656 19.367188 31.34375 L 22.769531 26.699219 C 29.734375 27.300781 33.996094 29.308594 33.996094 30.765625 C 33.996094 32.5 27.988281 35.015625 18.574219 35.015625 Z M 18.574219 35.015625 " fill-opacity="1" fill-rule="nonzero"/></g><path fill="#000000" d="M 24.3125 12.671875 C 24.3125 12.296875 24.273438 11.925781 24.199219 11.554688 C 24.128906 11.1875 24.019531 10.832031 23.875 10.484375 C 23.730469 10.136719 23.554688 9.808594 23.34375 9.496094 C 23.136719 9.183594 22.898438 8.894531 22.628906 8.628906 C 22.363281 8.363281 22.074219 8.128906 21.761719 7.917969 C 21.449219 7.710938 21.117188 7.535156 20.769531 7.390625 C 20.421875 7.246094 20.0625 7.136719 19.691406 7.066406 C 19.324219 6.992188 18.949219 6.957031 18.574219 6.957031 C 18.195312 6.957031 17.824219 6.992188 17.453125 7.066406 C 17.082031 7.136719 16.726562 7.246094 16.378906 7.390625 C 16.027344 7.535156 15.699219 7.710938 15.386719 7.917969 C 15.070312 8.128906 14.78125 8.363281 14.515625 8.628906 C 14.25 8.894531 14.011719 9.183594 13.800781 9.496094 C 13.59375 9.808594 13.414062 10.136719 13.269531 10.484375 C 13.128906 10.832031 13.019531 11.1875 12.945312 11.554688 C 12.871094 11.921875 12.835938 12.296875 12.835938 12.671875 C 12.835938 13.046875 12.871094 13.417969 12.945312 13.785156 C 13.019531 14.152344 13.128906 14.511719 13.269531 14.859375 C 13.414062 15.203125 13.59375 15.535156 13.800781 15.847656 C 14.011719 16.15625 14.25 16.445312 14.515625 16.710938 C 14.78125 16.976562 15.070312 17.214844 15.382812 17.421875 C 15.699219 17.632812 16.027344 17.808594 16.375 17.949219 C 16.726562 18.09375 17.082031 18.203125 17.453125 18.277344 C 17.824219 18.351562 18.195312 18.386719 18.574219 18.386719 C 18.949219 18.386719 19.324219 18.347656 19.691406 18.277344 C 20.0625 18.203125 20.417969 18.09375 20.769531 17.949219 C 21.117188 17.804688 21.445312 17.628906 21.757812 17.421875 C 22.074219 17.210938 22.363281 16.976562 22.628906 16.710938 C 22.894531 16.445312 23.132812 16.15625 23.34375 15.84375 C 23.550781 15.53125 23.726562 15.203125 23.871094 14.855469 C 24.015625 14.511719 24.125 14.152344 24.199219 13.785156 C 24.273438 13.417969 24.3125 13.046875 24.3125 12.671875 Z M 14.804688 12.671875 C 14.804688 12.171875 14.898438 11.695312 15.089844 11.234375 C 15.28125 10.773438 15.554688 10.367188 15.90625 10.015625 C 16.261719 9.664062 16.667969 9.394531 17.128906 9.203125 C 17.59375 9.011719 18.074219 8.917969 18.574219 8.917969 C 19.074219 8.917969 19.554688 9.011719 20.015625 9.203125 C 20.476562 9.394531 20.882812 9.664062 21.238281 10.015625 C 21.589844 10.367188 21.863281 10.773438 22.054688 11.234375 C 22.246094 11.695312 22.34375 12.171875 22.34375 12.671875 C 22.34375 13.167969 22.246094 13.648438 22.054688 14.109375 C 21.863281 14.566406 21.589844 14.972656 21.238281 15.324219 C 20.882812 15.675781 20.476562 15.949219 20.015625 16.140625 C 19.554688 16.328125 19.074219 16.425781 18.574219 16.425781 C 18.074219 16.425781 17.59375 16.328125 17.132812 16.136719 C 16.667969 15.949219 16.261719 15.675781 15.910156 15.324219 C 15.554688 14.972656 15.28125 14.566406 15.089844 14.105469 C 14.898438 13.648438 14.804688 13.167969 14.804688 12.671875 Z M 14.804688 12.671875 " fill-opacity="1" fill-rule="nonzero"/><g clip-path="url(#260131a400)"><g clip-path="url(#97a8b2378f)"><path fill="#000000" d="M 12.953125 12.953125 L 14.136719 12.953125 L 14.136719 14.136719 L 12.953125 14.136719 Z M 12.953125 12.953125 " fill-opacity="1" fill-rule="nonzero"/></g></g></svg>