<svg xmlns="http://www.w3.org/2000/svg" xmlnsXlink="http://www.w3.org/1999/xlink" width="50" zoomAndPan="magnify" viewBox="0 0 37.5 37.499999" height="50" preserveAspectRatio="xMidYMid meet" version="1.0"><defs><clipPath id="263708f090"><path d="M 0 0 L 37.007812 0 L 37.007812 37 L 0 37 Z M 0 0 " clipRule="nonzero"/></clipPath></defs><g clipPath="url(#263708f090)"><path fill="#000000" d="M 25.632812 26.082031 C 26.183594 26.773438 25.523438 27.535156 25.207031 27.824219 C 24.800781 28.210938 24.277344 28.527344 23.636719 28.765625 C 23.308594 28.886719 23.050781 28.960938 22.800781 28.992188 L 22.652344 29.011719 C 22.023438 29.078125 21.316406 29.019531 20.484375 28.832031 C 18.835938 28.484375 17.308594 27.484375 15.800781 25.792969 C 15.574219 25.574219 13.859375 23.855469 12.761719 21.4375 C 11.65625 18.984375 11.519531 16.582031 11.507812 16.320312 C 11.238281 14.011719 11.515625 12.210938 12.328125 10.75 C 12.78125 9.953125 13.25 9.34375 13.753906 8.910156 C 13.933594 8.75 14.167969 8.605469 14.480469 8.4375 C 15.066406 8.144531 15.640625 7.957031 16.179688 7.902344 C 16.515625 7.871094 17.660156 7.839844 17.804688 8.734375 L 17.953125 10.269531 C 18.023438 10.953125 18.171875 12.683594 18.171875 12.683594 C 18.28125 13.777344 18.152344 14.355469 17.085938 14.503906 C 17.003906 14.511719 16.925781 14.5 16.824219 14.5 C 16.585938 14.472656 16.371094 14.460938 16.179688 14.460938 L 15.402344 14.46875 L 15.417969 15.242188 C 15.4375 16.109375 15.746094 18.34375 16.40625 19.8125 C 17.015625 21.167969 18.429688 22.894531 19.175781 23.578125 L 19.75 24.101562 L 20.265625 23.515625 C 20.382812 23.382812 20.515625 23.214844 20.589844 23.117188 C 20.71875 22.945312 20.777344 22.859375 20.835938 22.816406 C 21.105469 22.582031 21.359375 22.453125 21.613281 22.429688 C 22.105469 22.378906 22.476562 22.734375 22.90625 23.210938 Z M 37.007812 18.503906 C 37.007812 28.710938 28.722656 36.992188 18.503906 36.992188 C 8.285156 36.992188 0 28.710938 0 18.503906 C 0 8.296875 8.285156 0.015625 18.503906 0.015625 C 28.722656 0.015625 37.007812 8.296875 37.007812 18.503906 Z M 34.195312 18.503906 C 34.195312 9.847656 27.167969 2.828125 18.503906 2.828125 C 9.835938 2.828125 2.8125 9.847656 2.8125 18.503906 C 2.8125 27.160156 9.835938 34.179688 18.503906 34.179688 C 27.167969 34.179688 34.195312 27.160156 34.195312 18.503906 Z M 34.195312 18.503906 " fill-opacity="1" fillRule="nonzero"/></g><path strokeLinecap="butt" transform="matrix(0.473821, 0.568585, -0.568585, 0.473821, 12.864928, 17.89973)" fill="none" strokeLinejoin="miter" d="M 0.00128775 0.498619 L 12.495234 0.501998 " stroke="#000000" strokeWidth="1" strokeOpacity="1" strokeMiterlimit="4"/></svg>