<svg xmlns="http://www.w3.org/2000/svg" xmlnsXlink="http://www.w3.org/1999/xlink" width="50" zoomAndPan="magnify" viewBox="0 0 37.5 37.499999" height="50" preserveAspectRatio="xMidYMid meet" version="1.0"><path fill="#000000" d="M 35.660156 21.398438 C 36.386719 21.398438 36.980469 20.804688 36.980469 20.078125 L 36.980469 16.886719 C 36.980469 16.160156 36.386719 15.566406 35.660156 15.566406 L 34.289062 15.566406 C 33.5625 15.566406 32.792969 14.996094 32.578125 14.304688 L 31.410156 11.464844 C 31.066406 10.824219 31.207031 9.878906 31.71875 9.367188 L 32.6875 8.398438 C 33.203125 7.882812 33.203125 7.042969 32.6875 6.53125 L 30.433594 4.273438 C 29.917969 3.757812 29.078125 3.757812 28.566406 4.273438 L 27.59375 5.242188 C 27.082031 5.757812 26.136719 5.894531 25.5 5.550781 L 22.660156 4.382812 C 21.964844 4.167969 21.398438 3.402344 21.398438 2.675781 L 21.398438 1.304688 C 21.398438 0.578125 20.804688 -0.015625 20.078125 -0.015625 L 16.886719 -0.015625 C 16.160156 -0.015625 15.566406 0.578125 15.566406 1.304688 L 15.566406 2.675781 C 15.566406 3.402344 14.996094 4.167969 14.304688 4.382812 L 11.464844 5.550781 C 10.824219 5.894531 9.882812 5.757812 9.367188 5.242188 L 8.398438 4.273438 C 7.882812 3.757812 7.042969 3.757812 6.53125 4.273438 L 4.273438 6.53125 C 3.761719 7.042969 3.761719 7.882812 4.273438 8.398438 L 5.246094 9.367188 C 5.757812 9.878906 5.894531 10.824219 5.554688 11.464844 L 4.382812 14.304688 C 4.171875 14.996094 3.402344 15.566406 2.675781 15.566406 L 1.304688 15.566406 C 0.578125 15.566406 -0.015625 16.160156 -0.015625 16.886719 L -0.015625 20.078125 C -0.015625 20.804688 0.578125 21.398438 1.304688 21.398438 L 2.675781 21.398438 C 3.402344 21.398438 4.171875 21.964844 4.382812 22.660156 L 5.554688 25.5 C 5.898438 26.136719 5.757812 27.082031 5.246094 27.59375 L 4.273438 28.566406 C 3.761719 29.078125 3.761719 29.917969 4.273438 30.433594 L 6.53125 32.6875 C 7.042969 33.203125 7.882812 33.203125 8.398438 32.6875 L 9.367188 31.71875 C 9.882812 31.207031 10.824219 31.066406 11.464844 31.410156 L 14.304688 32.578125 C 14.996094 32.792969 15.566406 33.5625 15.566406 34.289062 L 15.566406 35.660156 C 15.566406 36.386719 16.160156 36.980469 16.886719 36.980469 L 20.078125 36.980469 C 20.804688 36.980469 21.398438 36.386719 21.398438 35.660156 L 21.398438 34.289062 C 21.398438 33.5625 21.964844 32.792969 22.660156 32.578125 L 25.5 31.410156 C 26.136719 31.066406 27.082031 31.207031 27.59375 31.71875 L 28.566406 32.6875 C 29.078125 33.203125 29.917969 33.203125 30.433594 32.6875 L 32.691406 30.433594 C 33.203125 29.917969 33.203125 29.078125 32.691406 28.566406 L 31.71875 27.59375 C 31.207031 27.082031 31.066406 26.136719 31.410156 25.5 L 32.578125 22.660156 C 32.792969 21.964844 33.5625 21.398438 34.289062 21.398438 Z M 18.480469 26.089844 C 14.277344 26.089844 10.871094 22.683594 10.871094 18.480469 C 10.871094 14.277344 14.277344 10.871094 18.480469 10.871094 C 22.683594 10.871094 26.089844 14.277344 26.089844 18.480469 C 26.089844 22.683594 22.683594 26.089844 18.480469 26.089844 Z M 18.480469 26.089844 " fill-opacity="1" fillRule="nonzero"/></svg>