<svg xmlns="http://www.w3.org/2000/svg" xmlnsXlink="http://www.w3.org/1999/xlink" width="50" zoomAndPan="magnify" viewBox="0 0 37.5 37.499999" height="50" preserveAspectRatio="xMidYMid meet" version="1.0"><defs><clipPath id="15523dacc0"><path d="M 17 20 L 34.878906 20 L 34.878906 37.007812 L 17 37.007812 Z M 17 20 " clipRule="nonzero"/></clipPath><clipPath id="26af5e09b5"><path d="M 2.3125 0 L 31 0 L 31 37.007812 L 2.3125 37.007812 Z M 2.3125 0 " clipRule="nonzero"/></clipPath></defs><g clipPath="url(#15523dacc0)"><path fill="#000000" d="M 26.347656 20.046875 C 21.648438 20.046875 17.820312 23.847656 17.820312 28.527344 C 17.820312 33.203125 21.648438 37.007812 26.347656 37.007812 C 31.050781 37.007812 34.878906 33.203125 34.878906 28.527344 C 34.878906 23.847656 31.050781 20.046875 26.347656 20.046875 Z M 26.347656 35.464844 C 22.503906 35.464844 19.371094 32.351562 19.371094 28.527344 C 19.371094 24.699219 22.503906 21.585938 26.347656 21.585938 C 30.195312 21.585938 33.328125 24.699219 33.328125 28.527344 C 33.328125 32.351562 30.195312 35.464844 26.347656 35.464844 Z M 26.347656 35.464844 " fill-opacity="1" fillRule="nonzero"/></g><path fill="#000000" d="M 29.449219 27.753906 L 27.125 27.753906 L 27.125 25.441406 C 27.125 25.015625 26.777344 24.671875 26.347656 24.671875 C 25.921875 24.671875 25.574219 25.015625 25.574219 25.441406 L 25.574219 27.753906 L 23.25 27.753906 C 22.820312 27.753906 22.472656 28.101562 22.472656 28.527344 C 22.472656 28.953125 22.820312 29.296875 23.25 29.296875 L 25.574219 29.296875 L 25.574219 31.609375 C 25.574219 32.035156 25.921875 32.378906 26.347656 32.378906 C 26.777344 32.378906 27.125 32.035156 27.125 31.609375 L 27.125 29.296875 L 29.449219 29.296875 C 29.878906 29.296875 30.226562 28.953125 30.226562 28.527344 C 30.226562 28.101562 29.878906 27.753906 29.449219 27.753906 Z M 29.449219 27.753906 " fill-opacity="1" fillRule="nonzero"/><g clipPath="url(#26af5e09b5)"><path fill="#000000" d="M 19.371094 35.464844 L 4.640625 35.464844 C 4.210938 35.464844 3.863281 35.121094 3.863281 34.695312 L 3.863281 5.398438 C 3.863281 4.972656 4.210938 4.625 4.640625 4.625 L 8.515625 4.625 L 8.515625 5.398438 C 8.515625 5.824219 8.863281 6.167969 9.292969 6.167969 L 23.25 6.167969 C 23.675781 6.167969 24.023438 5.824219 24.023438 5.398438 L 24.023438 4.625 L 27.898438 4.625 C 28.328125 4.625 28.675781 4.972656 28.675781 5.398438 L 28.675781 17.730469 C 28.675781 18.15625 29.023438 18.503906 29.449219 18.503906 C 29.878906 18.503906 30.226562 18.15625 30.226562 17.730469 L 30.226562 5.398438 C 30.226562 4.121094 29.183594 3.082031 27.898438 3.082031 L 23.878906 3.082031 C 23.558594 2.1875 22.707031 1.542969 21.699219 1.542969 L 18.945312 1.542969 C 18.398438 0.601562 17.382812 0 16.269531 0 C 15.15625 0 14.140625 0.601562 13.59375 1.542969 L 10.84375 1.542969 C 9.832031 1.542969 8.980469 2.1875 8.660156 3.082031 L 4.640625 3.082031 C 3.355469 3.082031 2.3125 4.121094 2.3125 5.398438 L 2.3125 34.695312 C 2.3125 35.96875 3.355469 37.007812 4.640625 37.007812 L 19.371094 37.007812 C 19.800781 37.007812 20.148438 36.660156 20.148438 36.234375 C 20.148438 35.808594 19.800781 35.464844 19.371094 35.464844 Z M 10.84375 3.082031 L 14.082031 3.082031 C 14.410156 3.082031 14.703125 2.878906 14.8125 2.570312 C 15.035156 1.957031 15.621094 1.542969 16.269531 1.542969 C 16.917969 1.542969 17.5 1.957031 17.722656 2.570312 C 17.832031 2.878906 18.125 3.082031 18.453125 3.082031 L 21.699219 3.082031 C 22.125 3.082031 22.472656 3.429688 22.472656 3.855469 L 22.472656 4.625 L 10.066406 4.625 L 10.066406 3.855469 C 10.066406 3.429688 10.414062 3.082031 10.84375 3.082031 Z M 10.84375 3.082031 " fill-opacity="1" fillRule="nonzero"/></g><path strokeLinecap="butt" transform="matrix(0.740132, -0.000000000000000092, 0.000000000000000092, 0.740132, 12.673701, 5.106908)" fill="none" strokeLinejoin="miter" d="M -0.00246759 0.499445 L 14.078644 0.499445 " stroke="#000000" strokeWidth="1" strokeOpacity="1" strokeMiterlimit="4"/></svg>