<svg xmlns="http://www.w3.org/2000/svg" xmlnsXlink="http://www.w3.org/1999/xlink" width="50" zoomAndPan="magnify" viewBox="0 0 37.5 37.499999" height="50" preserveAspectRatio="xMidYMid meet" version="1.0"><path fill="#000000" d="M 33.085938 5.878906 C 33.011719 5.761719 32.960938 5.640625 32.9375 5.503906 C 32.914062 5.371094 32.917969 5.234375 32.949219 5.101562 C 32.980469 4.96875 33.039062 4.847656 33.121094 4.738281 C 33.203125 4.628906 33.304688 4.539062 33.421875 4.472656 C 33.929688 4.207031 34.382812 3.988281 34.558594 4.140625 C 35.394531 4.910156 35.996094 5.835938 36.355469 6.914062 C 36.429688 7.128906 36.078125 7.511719 35.671875 7.933594 C 35.582031 8.027344 35.476562 8.09375 35.355469 8.140625 C 35.234375 8.183594 35.109375 8.199219 34.980469 8.1875 C 34.851562 8.175781 34.730469 8.132812 34.621094 8.066406 C 34.511719 7.996094 34.425781 7.90625 34.355469 7.796875 Z M 2.886719 30.160156 C 2.8125 30.042969 2.71875 29.949219 2.597656 29.882812 C 2.480469 29.8125 2.351562 29.773438 2.214844 29.769531 C 2.078125 29.761719 1.949219 29.789062 1.824219 29.84375 C 1.699219 29.902344 1.59375 29.984375 1.511719 30.09375 C 1.175781 30.511719 0.90625 30.882812 0.984375 31.089844 C 1.40625 32.136719 2.039062 33.03125 2.882812 33.78125 C 3.015625 33.902344 3.402344 33.691406 3.839844 33.429688 C 3.949219 33.359375 4.042969 33.269531 4.121094 33.160156 C 4.195312 33.050781 4.246094 32.929688 4.273438 32.800781 C 4.300781 32.671875 4.304688 32.542969 4.277344 32.410156 C 4.253906 32.28125 4.207031 32.160156 4.132812 32.046875 Z M 7.710938 27.445312 C 6.800781 26.074219 5.894531 24.699219 4.984375 23.328125 C 3.457031 21.011719 3.457031 21.011719 1.359375 22.679688 C 0.132812 23.65625 0.0273438 24.261719 0.898438 25.582031 C 2.664062 28.265625 4.480469 30.90625 6.195312 33.625 C 8.246094 36.871094 8.390625 36.320312 11.015625 34.308594 C 11.65625 33.816406 11.675781 33.390625 11.210938 32.722656 C 10.015625 30.988281 8.875 29.210938 7.710938 27.449219 Z M 36.097656 11.796875 C 34.355469 9.144531 32.5625 6.527344 30.859375 3.84375 C 28.847656 0.671875 28.691406 1.105469 26.015625 3.195312 C 25.886719 3.265625 25.777344 3.363281 25.691406 3.484375 C 25.605469 3.605469 25.550781 3.742188 25.53125 3.890625 C 25.511719 4.039062 25.527344 4.183594 25.574219 4.324219 C 25.625 4.464844 25.707031 4.585938 25.8125 4.6875 C 27.0625 6.496094 28.253906 8.351562 29.46875 10.1875 L 32.128906 14.210938 C 33.609375 16.449219 33.609375 16.449219 35.679688 14.8125 C 36.957031 13.800781 37.046875 13.238281 36.097656 11.796875 Z M 12.902344 23.792969 C 11.457031 21.605469 10.011719 19.421875 8.566406 17.234375 C 6.757812 14.503906 6.757812 14.503906 4.21875 16.480469 C 2.769531 17.609375 2.699219 18.054688 3.746094 19.644531 C 6.75 24.195312 9.757812 28.742188 12.769531 33.289062 C 14.726562 36.25 14.765625 36.253906 17.484375 34.019531 C 18.59375 33.109375 18.679688 32.550781 17.863281 31.304688 C 16.21875 28.796875 14.566406 26.292969 12.902344 23.792969 Z M 28.640625 10.644531 C 27.195312 8.457031 25.75 6.273438 24.304688 4.089844 C 22.53125 1.414062 22.53125 1.414062 20.046875 3.347656 C 18.511719 4.546875 18.460938 4.882812 19.59375 6.59375 C 22.597656 11.144531 25.605469 15.691406 28.617188 20.234375 C 30.515625 23.105469 30.515625 23.105469 33.132812 21.035156 C 34.410156 20.023438 34.5 19.519531 33.601562 18.15625 C 31.957031 15.648438 30.300781 13.144531 28.640625 10.644531 Z M 22.953125 13.8125 C 22.878906 13.691406 22.78125 13.59375 22.664062 13.511719 C 22.546875 13.433594 22.417969 13.378906 22.28125 13.355469 C 22.140625 13.332031 22.003906 13.335938 21.867188 13.367188 C 21.730469 13.402344 21.605469 13.460938 21.492188 13.550781 L 13.078125 20.058594 C 12.84375 20.253906 12.703125 20.5 12.65625 20.800781 C 12.609375 21.101562 12.671875 21.378906 12.835938 21.632812 L 13.871094 23.195312 C 13.945312 23.316406 14.039062 23.417969 14.15625 23.496094 C 14.273438 23.574219 14.402344 23.628906 14.539062 23.652344 C 14.679688 23.679688 14.816406 23.675781 14.957031 23.640625 C 15.09375 23.605469 15.21875 23.546875 15.328125 23.457031 L 23.742188 16.949219 C 23.976562 16.753906 24.121094 16.507812 24.164062 16.207031 C 24.210938 15.90625 24.152344 15.628906 23.984375 15.375 Z M 22.953125 13.8125 " fill-opacity="1" fillRule="nonzero"/></svg>