<svg xmlns="http://www.w3.org/2000/svg" xmlnsXlink="http://www.w3.org/1999/xlink" width="50" zoomAndPan="magnify" viewBox="0 0 37.5 37.499999" height="50" preserveAspectRatio="xMidYMid meet" version="1.0"><defs><clipPath id="fb9f8a5c12"><path d="M 0 0 L 37 0 L 37 35.527344 L 0 35.527344 Z M 0 0 " clipRule="nonzero"/></clipPath><clipPath id="865d190d5b"><path d="M 36 13 L 37.007812 13 L 37.007812 24 L 36 24 Z M 36 13 " clipRule="nonzero"/></clipPath></defs><g clipPath="url(#fb9f8a5c12)"><path fill="#000000" d="M 33.9375 10.292969 L 33.9375 8.410156 C 33.9375 7.457031 33.183594 6.660156 32.222656 6.660156 L 31.875 6.660156 L 31.875 5.0625 L 32.523438 5.0625 C 32.667969 5.066406 32.792969 5.015625 32.894531 4.914062 C 32.996094 4.8125 33.046875 4.691406 33.039062 4.550781 L 33.039062 0.53125 C 33.046875 0.386719 32.996094 0.261719 32.898438 0.160156 C 32.796875 0.0546875 32.671875 0 32.523438 0 L 27.097656 0 C 26.949219 0 26.828125 0.0546875 26.726562 0.160156 C 26.628906 0.265625 26.582031 0.390625 26.585938 0.53125 L 26.585938 2.191406 C 26.046875 1.75 25.421875 1.523438 24.722656 1.511719 L 17.996094 1.460938 C 17.847656 1.460938 17.722656 1.511719 17.613281 1.613281 C 17.507812 1.714844 17.453125 1.839844 17.453125 1.988281 C 17.449219 2.132812 17.5 2.261719 17.605469 2.367188 C 17.707031 2.472656 17.835938 2.523438 17.984375 2.527344 L 24.695312 2.574219 C 24.941406 2.582031 25.183594 2.632812 25.410156 2.730469 C 25.636719 2.828125 25.839844 2.964844 26.011719 3.140625 C 26.183594 3.320312 26.316406 3.523438 26.40625 3.75 C 26.5 3.980469 26.542969 4.21875 26.539062 4.464844 C 26.539062 4.523438 26.546875 4.582031 26.566406 4.636719 C 26.589844 4.761719 26.652344 4.863281 26.753906 4.945312 C 26.851562 5.027344 26.96875 5.066406 27.097656 5.0625 L 27.753906 5.0625 L 27.753906 6.660156 L 27.398438 6.660156 C 26.4375 6.660156 25.691406 7.457031 25.691406 8.410156 L 25.691406 10.292969 C 25.261719 10.378906 24.855469 10.53125 24.480469 10.757812 C 24.101562 10.980469 23.773438 11.261719 23.496094 11.597656 C 23.21875 11.9375 23.003906 12.308594 22.859375 12.722656 C 22.714844 13.132812 22.640625 13.554688 22.644531 13.992188 L 22.644531 22.976562 C 22.421875 22.9375 22.199219 22.914062 21.972656 22.914062 L 17.175781 22.914062 C 16.386719 22.914062 15.636719 22.746094 14.925781 22.40625 L 14.433594 22.171875 C 13.726562 21.832031 12.992188 21.59375 12.21875 21.457031 C 11.449219 21.320312 10.675781 21.289062 9.894531 21.363281 C 9.117188 21.441406 8.359375 21.621094 7.632812 21.902344 C 6.902344 22.183594 6.226562 22.558594 5.601562 23.027344 C 5.589844 23.035156 5.578125 23.046875 5.566406 23.054688 L 0.238281 27.757812 C 0.140625 27.84375 0.0820312 27.953125 0.0625 28.082031 C 0.046875 28.214844 0.0742188 28.335938 0.144531 28.445312 L 4.625 35.285156 C 4.734375 35.445312 4.882812 35.527344 5.078125 35.527344 L 5.09375 35.527344 C 5.292969 35.519531 5.445312 35.433594 5.542969 35.257812 L 7.496094 31.890625 C 7.707031 31.519531 8.007812 31.246094 8.402344 31.074219 C 8.792969 30.902344 9.199219 30.863281 9.621094 30.960938 L 17.855469 33.007812 C 17.867188 33.011719 17.878906 33.015625 17.890625 33.015625 C 19.769531 33.351562 21.566406 33.097656 23.28125 32.261719 C 23.304688 32.25 23.324219 32.238281 23.347656 32.222656 L 23.414062 32.171875 C 23.777344 32.640625 24.226562 33.007812 24.757812 33.269531 C 25.292969 33.53125 25.859375 33.660156 26.453125 33.660156 L 33.164062 33.660156 C 33.671875 33.660156 34.15625 33.566406 34.625 33.375 C 35.09375 33.183594 35.503906 32.914062 35.863281 32.558594 C 36.222656 32.207031 36.496094 31.796875 36.691406 31.335938 C 36.886719 30.871094 36.984375 30.390625 36.984375 29.890625 L 36.984375 13.992188 C 36.988281 13.554688 36.914062 13.132812 36.769531 12.722656 C 36.621094 12.3125 36.410156 11.9375 36.132812 11.597656 C 35.855469 11.261719 35.527344 10.980469 35.148438 10.757812 C 34.773438 10.53125 34.367188 10.378906 33.9375 10.292969 Z M 27.664062 1.066406 L 31.964844 1.066406 L 31.964844 3.996094 L 27.664062 3.996094 Z M 28.828125 5.0625 L 30.800781 5.0625 L 30.800781 6.660156 L 28.828125 6.660156 Z M 27.398438 7.726562 L 32.222656 7.726562 C 32.59375 7.726562 32.859375 8.042969 32.859375 8.410156 L 32.859375 10.214844 L 26.765625 10.214844 L 26.765625 8.410156 C 26.765625 8.042969 27.027344 7.726562 27.398438 7.726562 Z M 23.71875 15.898438 L 29.277344 15.898438 L 29.277344 23.269531 L 25.664062 25.203125 C 25.230469 24.355469 24.582031 23.722656 23.71875 23.304688 Z M 18.097656 31.972656 L 9.898438 29.929688 L 9.875 29.921875 C 9.554688 29.851562 9.234375 29.828125 8.910156 29.859375 C 8.585938 29.890625 8.277344 29.96875 7.976562 30.097656 C 7.679688 30.226562 7.410156 30.398438 7.167969 30.613281 C 6.925781 30.832031 6.722656 31.078125 6.5625 31.359375 L 5.050781 33.972656 L 1.296875 28.25 L 6.265625 23.867188 C 6.808594 23.460938 7.402344 23.136719 8.039062 22.890625 C 8.671875 22.644531 9.332031 22.492188 10.011719 22.425781 C 10.691406 22.363281 11.363281 22.390625 12.035156 22.507812 C 12.707031 22.628906 13.351562 22.835938 13.964844 23.132812 L 14.457031 23.367188 C 15.316406 23.777344 16.222656 23.980469 17.175781 23.980469 L 21.972656 23.980469 C 22.3125 23.980469 22.640625 24.035156 22.960938 24.148438 C 23.28125 24.257812 23.578125 24.417969 23.84375 24.625 C 24.109375 24.832031 24.335938 25.078125 24.519531 25.359375 C 24.703125 25.644531 24.835938 25.949219 24.914062 26.273438 C 24.910156 26.324219 24.914062 26.375 24.925781 26.425781 L 21.472656 26.273438 C 20.207031 26.214844 18.945312 26.273438 17.6875 26.445312 L 17.582031 26.460938 C 17.433594 26.480469 17.316406 26.550781 17.226562 26.667969 C 17.136719 26.785156 17.101562 26.914062 17.121094 27.0625 C 17.140625 27.207031 17.210938 27.324219 17.328125 27.414062 C 17.449219 27.5 17.582031 27.535156 17.726562 27.515625 L 17.835938 27.5 C 19.027344 27.339844 20.222656 27.285156 21.421875 27.335938 L 25.515625 27.519531 C 25.667969 27.527344 25.800781 27.480469 25.910156 27.375 C 26.019531 27.269531 26.078125 27.140625 26.078125 26.988281 C 26.078125 26.746094 26.054688 26.507812 26.011719 26.269531 L 26.023438 26.214844 L 31.324219 23.382812 C 31.746094 23.15625 32.195312 23.078125 32.667969 23.148438 C 33.140625 23.21875 33.546875 23.421875 33.882812 23.761719 L 22.769531 31.324219 C 21.285156 32.039062 19.726562 32.253906 18.097656 31.972656 Z M 29.277344 28.191406 L 29.277344 29.308594 L 27.617188 29.308594 Z M 33.164062 32.59375 L 26.453125 32.59375 C 26.035156 32.59375 25.636719 32.503906 25.261719 32.324219 C 24.882812 32.140625 24.5625 31.886719 24.304688 31.5625 L 26.050781 30.375 L 29.808594 30.375 C 29.957031 30.378906 30.085938 30.328125 30.191406 30.226562 C 30.296875 30.125 30.351562 30 30.351562 29.851562 L 30.351562 27.460938 L 34.960938 24.324219 C 35.078125 24.242188 35.152344 24.136719 35.179688 23.996094 C 35.210938 23.859375 35.1875 23.730469 35.117188 23.609375 C 34.902344 23.257812 34.628906 22.957031 34.300781 22.707031 C 33.96875 22.460938 33.601562 22.28125 33.203125 22.171875 C 32.800781 22.0625 32.394531 22.03125 31.984375 22.082031 C 31.570312 22.128906 31.183594 22.25 30.816406 22.445312 L 30.351562 22.695312 L 30.351562 19.828125 L 30.496094 19.871094 C 31.484375 20.152344 32.4375 20.058594 33.351562 19.59375 C 34.003906 19.257812 34.6875 19.191406 35.398438 19.386719 L 35.910156 19.527344 L 35.910156 29.890625 C 35.90625 30.25 35.835938 30.59375 35.699219 30.925781 C 35.558594 31.257812 35.359375 31.550781 35.101562 31.804688 C 34.847656 32.058594 34.550781 32.253906 34.214844 32.390625 C 33.878906 32.527344 33.527344 32.597656 33.164062 32.59375 Z M 35.910156 18.421875 L 35.683594 18.359375 C 34.707031 18.089844 33.761719 18.183594 32.859375 18.644531 C 32.199219 18.980469 31.507812 19.050781 30.792969 18.84375 L 30.351562 18.71875 L 30.351562 15.402344 C 30.351562 15.109375 30.109375 14.832031 29.808594 14.832031 L 23.71875 14.832031 L 23.71875 13.992188 C 23.71875 13.632812 23.789062 13.285156 23.925781 12.953125 C 24.066406 12.621094 24.261719 12.328125 24.519531 12.074219 C 24.777344 11.820312 25.070312 11.625 25.40625 11.484375 C 25.742188 11.347656 26.089844 11.28125 26.453125 11.28125 L 33.164062 11.28125 C 33.527344 11.28125 33.878906 11.347656 34.214844 11.484375 C 34.550781 11.621094 34.847656 11.820312 35.105469 12.074219 C 35.359375 12.328125 35.558594 12.621094 35.699219 12.953125 C 35.839844 13.285156 35.90625 13.632812 35.910156 13.992188 Z M 35.910156 18.421875 " fillOpacity="1" fillRule="nonzero"/></g><path fill="#000000" d="M 17.410156 13.503906 C 17.648438 13.503906 17.882812 13.476562 18.113281 13.417969 C 18.34375 13.359375 18.5625 13.269531 18.769531 13.15625 C 18.976562 13.042969 19.167969 12.90625 19.339844 12.742188 C 19.511719 12.582031 19.660156 12.402344 19.789062 12.203125 C 19.914062 12.003906 20.011719 11.789062 20.085938 11.566406 C 20.15625 11.339844 20.199219 11.113281 20.210938 10.875 C 20.222656 10.640625 20.207031 10.410156 20.160156 10.179688 C 20.113281 9.949219 20.039062 9.726562 19.933594 9.515625 C 19.925781 9.496094 19.914062 9.480469 19.90625 9.464844 L 17.867188 6.261719 C 17.816406 6.183594 17.75 6.125 17.671875 6.078125 C 17.589844 6.035156 17.503906 6.011719 17.410156 6.011719 C 17.320312 6.011719 17.234375 6.035156 17.152344 6.078125 C 17.070312 6.125 17.007812 6.183594 16.957031 6.261719 L 14.917969 9.464844 C 14.90625 9.480469 14.898438 9.496094 14.890625 9.515625 C 14.785156 9.726562 14.710938 9.949219 14.664062 10.179688 C 14.617188 10.410156 14.597656 10.640625 14.613281 10.875 C 14.625 11.113281 14.667969 11.339844 14.738281 11.566406 C 14.808594 11.789062 14.910156 12.003906 15.035156 12.203125 C 15.160156 12.402344 15.308594 12.582031 15.484375 12.742188 C 15.65625 12.90625 15.84375 13.042969 16.054688 13.15625 C 16.261719 13.269531 16.480469 13.359375 16.710938 13.417969 C 16.941406 13.476562 17.171875 13.503906 17.410156 13.503906 Z M 15.84375 10.003906 L 17.410156 7.542969 L 18.976562 10.003906 C 19.039062 10.136719 19.082031 10.269531 19.109375 10.414062 C 19.136719 10.554688 19.144531 10.695312 19.136719 10.839844 C 19.125 10.984375 19.097656 11.125 19.054688 11.261719 C 19.007812 11.398438 18.945312 11.527344 18.867188 11.648438 C 18.789062 11.769531 18.699219 11.878906 18.59375 11.976562 C 18.484375 12.074219 18.371094 12.160156 18.242188 12.230469 C 18.113281 12.296875 17.980469 12.351562 17.839844 12.386719 C 17.699219 12.421875 17.554688 12.441406 17.410156 12.441406 C 17.265625 12.441406 17.125 12.421875 16.984375 12.386719 C 16.84375 12.351562 16.707031 12.296875 16.582031 12.230469 C 16.453125 12.160156 16.335938 12.074219 16.230469 11.976562 C 16.125 11.878906 16.03125 11.769531 15.953125 11.648438 C 15.875 11.527344 15.816406 11.398438 15.769531 11.261719 C 15.722656 11.125 15.695312 10.984375 15.6875 10.839844 C 15.679688 10.695312 15.6875 10.554688 15.714844 10.414062 C 15.738281 10.269531 15.785156 10.136719 15.84375 10.003906 Z M 15.84375 10.003906 " fillOpacity="1" fillRule="nonzero"/><g clipPath="url(#865d190d5b)"><path strokeLinecap="butt" transform="matrix(0, 0.740132, -0.740132, 0, 37.001951, 13.993112)" fill="none" strokeLinejoin="miter" d="M -0.00124863 0.498747 L 12.200974 0.498747 " stroke="#000000" strokeWidth="1" strokeOpacity="1" strokeMiterlimit="4"/></g></svg>