<svg xmlns="http://www.w3.org/2000/svg" xmlnsXlink="http://www.w3.org/1999/xlink" width="50" zoomAndPan="magnify" viewBox="0 0 37.5 37.499999" height="50" preserveAspectRatio="xMidYMid meet" version="1.0"><defs><clipPath id="80e30fad60"><path d="M 0 0 L 37.007812 0 L 37.007812 37.007812 L 0 37.007812 Z M 0 0 " clipRule="nonzero"/></clipPath></defs><g clipPath="url(#80e30fad60)"><path fill="#000000" d="M 18.503906 37.007812 C 19.109375 37.007812 19.714844 36.976562 20.316406 36.917969 C 20.921875 36.859375 21.519531 36.769531 22.113281 36.652344 C 22.707031 36.53125 23.292969 36.386719 23.875 36.210938 C 24.453125 36.035156 25.023438 35.828125 25.585938 35.597656 C 26.144531 35.367188 26.691406 35.105469 27.226562 34.820312 C 27.761719 34.535156 28.277344 34.226562 28.78125 33.886719 C 29.285156 33.550781 29.773438 33.191406 30.242188 32.804688 C 30.710938 32.421875 31.160156 32.015625 31.585938 31.585938 C 32.015625 31.160156 32.421875 30.710938 32.804688 30.242188 C 33.191406 29.773438 33.550781 29.285156 33.886719 28.78125 C 34.226562 28.277344 34.535156 27.761719 34.820312 27.226562 C 35.105469 26.691406 35.367188 26.144531 35.597656 25.585938 C 35.828125 25.023438 36.035156 24.453125 36.210938 23.875 C 36.386719 23.292969 36.53125 22.707031 36.652344 22.113281 C 36.769531 21.519531 36.859375 20.921875 36.917969 20.316406 C 36.976562 19.714844 37.007812 19.109375 37.007812 18.503906 C 37.007812 17.898438 36.976562 17.292969 36.917969 16.691406 C 36.859375 16.085938 36.769531 15.488281 36.652344 14.894531 C 36.53125 14.300781 36.386719 13.710938 36.210938 13.132812 C 36.035156 12.550781 35.828125 11.980469 35.597656 11.421875 C 35.367188 10.863281 35.105469 10.316406 34.820312 9.78125 C 34.535156 9.246094 34.226562 8.726562 33.886719 8.222656 C 33.550781 7.71875 33.191406 7.234375 32.804688 6.765625 C 32.421875 6.296875 32.015625 5.847656 31.585938 5.417969 C 31.160156 4.992188 30.710938 4.585938 30.242188 4.199219 C 29.773438 3.816406 29.285156 3.453125 28.78125 3.117188 C 28.277344 2.78125 27.761719 2.46875 27.226562 2.183594 C 26.691406 1.898438 26.144531 1.640625 25.585938 1.410156 C 25.023438 1.175781 24.453125 0.972656 23.875 0.796875 C 23.292969 0.621094 22.707031 0.472656 22.113281 0.355469 C 21.519531 0.238281 20.921875 0.148438 20.316406 0.0898438 C 19.714844 0.03125 19.109375 0 18.503906 0 C 17.898438 0 17.292969 0.03125 16.691406 0.0898438 C 16.085938 0.148438 15.488281 0.238281 14.894531 0.355469 C 14.300781 0.472656 13.710938 0.621094 13.132812 0.796875 C 12.550781 0.972656 11.980469 1.175781 11.421875 1.410156 C 10.863281 1.640625 10.316406 1.898438 9.78125 2.183594 C 9.246094 2.46875 8.726562 2.78125 8.222656 3.117188 C 7.71875 3.453125 7.234375 3.816406 6.765625 4.199219 C 6.296875 4.585938 5.847656 4.992188 5.417969 5.417969 C 4.992188 5.847656 4.585938 6.296875 4.199219 6.765625 C 3.816406 7.234375 3.453125 7.71875 3.117188 8.222656 C 2.78125 8.726562 2.46875 9.246094 2.183594 9.78125 C 1.898438 10.316406 1.640625 10.863281 1.410156 11.421875 C 1.175781 11.980469 0.972656 12.550781 0.796875 13.132812 C 0.621094 13.710938 0.472656 14.300781 0.355469 14.894531 C 0.238281 15.488281 0.148438 16.085938 0.0898438 16.691406 C 0.03125 17.292969 0 17.898438 0 18.503906 C 0 19.109375 0.03125 19.714844 0.0898438 20.316406 C 0.148438 20.921875 0.238281 21.519531 0.355469 22.113281 C 0.472656 22.707031 0.621094 23.292969 0.796875 23.875 C 0.972656 24.453125 1.175781 25.023438 1.410156 25.585938 C 1.640625 26.144531 1.898438 26.691406 2.183594 27.226562 C 2.46875 27.761719 2.78125 28.277344 3.117188 28.78125 C 3.453125 29.285156 3.816406 29.773438 4.199219 30.242188 C 4.585938 30.710938 4.992188 31.160156 5.417969 31.585938 C 5.847656 32.015625 6.296875 32.421875 6.765625 32.804688 C 7.234375 33.191406 7.71875 33.550781 8.222656 33.886719 C 8.726562 34.226562 9.246094 34.535156 9.78125 34.820312 C 10.316406 35.105469 10.863281 35.367188 11.421875 35.597656 C 11.980469 35.828125 12.550781 36.035156 13.132812 36.210938 C 13.710938 36.386719 14.300781 36.53125 14.894531 36.652344 C 15.488281 36.769531 16.085938 36.859375 16.691406 36.917969 C 17.292969 36.976562 17.898438 37.007812 18.503906 37.007812 Z M 18.503906 1.234375 C 19.070312 1.234375 19.632812 1.261719 20.195312 1.316406 C 20.757812 1.371094 21.316406 1.453125 21.871094 1.566406 C 22.425781 1.675781 22.976562 1.8125 23.515625 1.976562 C 24.058594 2.140625 24.589844 2.332031 25.113281 2.546875 C 25.632812 2.765625 26.144531 3.007812 26.644531 3.273438 C 27.144531 3.539062 27.628906 3.828125 28.097656 4.144531 C 28.566406 4.457031 29.023438 4.792969 29.460938 5.152344 C 29.894531 5.511719 30.316406 5.890625 30.714844 6.292969 C 31.113281 6.691406 31.496094 7.109375 31.851562 7.546875 C 32.210938 7.984375 32.546875 8.4375 32.863281 8.910156 C 33.175781 9.378906 33.46875 9.863281 33.734375 10.363281 C 34 10.859375 34.242188 11.371094 34.457031 11.894531 C 34.675781 12.417969 34.863281 12.949219 35.03125 13.488281 C 35.195312 14.03125 35.332031 14.578125 35.441406 15.132812 C 35.550781 15.6875 35.632812 16.246094 35.691406 16.8125 C 35.746094 17.375 35.773438 17.9375 35.773438 18.503906 C 35.773438 19.070312 35.746094 19.632812 35.691406 20.195312 C 35.632812 20.757812 35.550781 21.316406 35.441406 21.871094 C 35.332031 22.425781 35.195312 22.976562 35.03125 23.515625 C 34.863281 24.058594 34.675781 24.589844 34.457031 25.113281 C 34.242188 25.632812 34 26.144531 33.734375 26.644531 C 33.46875 27.144531 33.175781 27.628906 32.863281 28.097656 C 32.546875 28.566406 32.210938 29.023438 31.851562 29.460938 C 31.496094 29.894531 31.113281 30.316406 30.714844 30.714844 C 30.316406 31.113281 29.894531 31.496094 29.460938 31.851562 C 29.023438 32.210938 28.566406 32.546875 28.097656 32.863281 C 27.628906 33.175781 27.144531 33.46875 26.644531 33.734375 C 26.144531 34 25.632812 34.242188 25.113281 34.457031 C 24.589844 34.675781 24.058594 34.863281 23.515625 35.03125 C 22.976562 35.195312 22.425781 35.332031 21.871094 35.441406 C 21.316406 35.550781 20.757812 35.632812 20.195312 35.691406 C 19.632812 35.746094 19.070312 35.773438 18.503906 35.773438 C 17.9375 35.773438 17.375 35.746094 16.8125 35.691406 C 16.246094 35.632812 15.6875 35.550781 15.132812 35.441406 C 14.578125 35.332031 14.03125 35.195312 13.488281 35.03125 C 12.949219 34.863281 12.417969 34.675781 11.894531 34.457031 C 11.371094 34.242188 10.859375 34 10.363281 33.734375 C 9.863281 33.46875 9.378906 33.175781 8.910156 32.863281 C 8.4375 32.546875 7.984375 32.210938 7.546875 31.851562 C 7.109375 31.496094 6.691406 31.113281 6.292969 30.714844 C 5.890625 30.316406 5.511719 29.894531 5.152344 29.460938 C 4.792969 29.023438 4.457031 28.566406 4.144531 28.097656 C 3.828125 27.628906 3.539062 27.144531 3.273438 26.644531 C 3.007812 26.144531 2.765625 25.632812 2.546875 25.113281 C 2.332031 24.589844 2.140625 24.058594 1.976562 23.515625 C 1.8125 22.976562 1.675781 22.425781 1.566406 21.871094 C 1.453125 21.316406 1.371094 20.757812 1.316406 20.195312 C 1.261719 19.632812 1.234375 19.070312 1.234375 18.503906 C 1.234375 17.9375 1.261719 17.375 1.316406 16.8125 C 1.371094 16.246094 1.453125 15.6875 1.566406 15.132812 C 1.675781 14.578125 1.8125 14.03125 1.976562 13.488281 C 2.140625 12.949219 2.332031 12.417969 2.546875 11.894531 C 2.765625 11.371094 3.007812 10.859375 3.273438 10.363281 C 3.539062 9.863281 3.828125 9.378906 4.144531 8.910156 C 4.457031 8.4375 4.792969 7.984375 5.152344 7.546875 C 5.511719 7.109375 5.890625 6.691406 6.292969 6.292969 C 6.691406 5.890625 7.109375 5.511719 7.546875 5.152344 C 7.984375 4.792969 8.4375 4.457031 8.910156 4.144531 C 9.378906 3.828125 9.863281 3.539062 10.363281 3.273438 C 10.859375 3.007812 11.371094 2.765625 11.894531 2.546875 C 12.417969 2.332031 12.949219 2.140625 13.488281 1.976562 C 14.03125 1.8125 14.578125 1.675781 15.132812 1.566406 C 15.6875 1.453125 16.246094 1.371094 16.8125 1.316406 C 17.375 1.261719 17.9375 1.234375 18.503906 1.234375 Z M 18.503906 1.234375 " fill-opacity="1" fillRule="nonzero"/></g><path fill="#000000" d="M 10.226562 30.917969 C 10.332031 30.992188 10.449219 31.03125 10.578125 31.03125 C 10.792969 31.027344 10.960938 30.9375 11.082031 30.757812 C 11.179688 30.617188 11.210938 30.464844 11.179688 30.296875 C 11.148438 30.128906 11.0625 29.996094 10.921875 29.902344 C 10.519531 29.625 10.128906 29.324219 9.757812 29.007812 C 9.386719 28.6875 9.03125 28.347656 8.695312 27.992188 C 8.359375 27.632812 8.042969 27.257812 7.75 26.867188 C 7.453125 26.472656 7.183594 26.066406 6.929688 25.644531 C 6.679688 25.222656 6.453125 24.789062 6.25 24.34375 C 6.046875 23.898438 5.867188 23.441406 5.710938 22.976562 C 5.558594 22.511719 5.429688 22.039062 5.324219 21.558594 C 5.222656 21.078125 5.144531 20.59375 5.09375 20.105469 C 5.046875 19.621094 5.019531 19.128906 5.023438 18.640625 C 5.027344 18.148438 5.054688 17.660156 5.109375 17.171875 C 5.164062 16.683594 5.246094 16.203125 5.355469 15.722656 C 5.464844 15.246094 5.597656 14.773438 5.753906 14.308594 C 5.914062 13.847656 6.097656 13.390625 6.304688 12.949219 C 6.515625 12.503906 6.746094 12.070312 7 11.652344 C 7.257812 11.234375 7.53125 10.828125 7.832031 10.441406 C 8.132812 10.050781 8.449219 9.679688 8.789062 9.324219 C 8.890625 9.199219 8.9375 9.058594 8.929688 8.898438 C 8.917969 8.734375 8.855469 8.597656 8.738281 8.488281 C 8.625 8.375 8.484375 8.320312 8.324219 8.316406 C 8.160156 8.3125 8.019531 8.367188 7.902344 8.472656 C 7.53125 8.859375 7.183594 9.265625 6.855469 9.691406 C 6.53125 10.113281 6.230469 10.554688 5.949219 11.011719 C 5.671875 11.46875 5.417969 11.941406 5.191406 12.425781 C 4.964844 12.910156 4.765625 13.40625 4.589844 13.910156 C 4.417969 14.417969 4.273438 14.929688 4.15625 15.453125 C 4.039062 15.976562 3.949219 16.503906 3.886719 17.035156 C 3.828125 17.566406 3.796875 18.097656 3.792969 18.632812 C 3.789062 19.167969 3.816406 19.703125 3.871094 20.234375 C 3.925781 20.765625 4.011719 21.292969 4.121094 21.816406 C 4.234375 22.339844 4.375 22.855469 4.542969 23.363281 C 4.710938 23.871094 4.90625 24.371094 5.128906 24.855469 C 5.351562 25.34375 5.597656 25.816406 5.871094 26.277344 C 6.144531 26.734375 6.445312 27.179688 6.765625 27.609375 C 7.085938 28.035156 7.429688 28.445312 7.796875 28.835938 C 8.164062 29.226562 8.550781 29.59375 8.953125 29.941406 C 9.359375 30.289062 9.785156 30.617188 10.226562 30.917969 Z M 10.226562 30.917969 " fill-opacity="1" fillRule="nonzero"/><path fill="#000000" d="M 15.605469 32.589844 C 15.574219 32.757812 15.609375 32.914062 15.707031 33.054688 C 15.808594 33.195312 15.941406 33.277344 16.109375 33.304688 C 16.925781 33.441406 17.75 33.507812 18.578125 33.507812 C 19.542969 33.511719 20.5 33.417969 21.445312 33.230469 C 21.617188 33.199219 21.75 33.113281 21.847656 32.96875 C 21.945312 32.824219 21.976562 32.667969 21.945312 32.496094 C 21.914062 32.328125 21.824219 32.195312 21.679688 32.097656 C 21.539062 32 21.382812 31.964844 21.210938 32 C 19.570312 32.316406 17.925781 32.335938 16.277344 32.058594 C 16.113281 32.042969 15.964844 32.085938 15.832031 32.191406 C 15.703125 32.292969 15.625 32.425781 15.605469 32.589844 Z M 15.605469 32.589844 " fill-opacity="1" fillRule="nonzero"/><path fill="#000000" d="M 26.558594 29.699219 C 26.4375 29.773438 26.351562 29.875 26.304688 30.007812 C 26.253906 30.140625 26.25 30.277344 26.292969 30.410156 C 26.335938 30.546875 26.417969 30.652344 26.535156 30.734375 C 26.652344 30.8125 26.78125 30.847656 26.921875 30.839844 C 27.054688 30.839844 27.171875 30.800781 27.28125 30.722656 C 27.695312 30.421875 28.09375 30.097656 28.476562 29.757812 C 28.859375 29.414062 29.222656 29.054688 29.566406 28.671875 C 29.914062 28.292969 30.238281 27.894531 30.539062 27.480469 C 30.84375 27.066406 31.125 26.640625 31.382812 26.195312 C 31.644531 25.753906 31.878906 25.296875 32.089844 24.828125 C 32.300781 24.363281 32.488281 23.886719 32.648438 23.398438 C 32.8125 22.910156 32.949219 22.417969 33.058594 21.914062 C 33.167969 21.414062 33.253906 20.910156 33.3125 20.398438 C 33.367188 19.886719 33.398438 19.378906 33.40625 18.863281 C 33.410156 18.351562 33.386719 17.839844 33.339844 17.328125 C 33.289062 16.816406 33.214844 16.308594 33.113281 15.804688 C 33.011719 15.304688 32.886719 14.804688 32.730469 14.316406 C 32.578125 13.828125 32.402344 13.347656 32.199219 12.875 C 31.996094 12.402344 31.769531 11.945312 31.519531 11.496094 C 31.265625 11.046875 30.992188 10.613281 30.699219 10.195312 C 30.402344 9.777344 30.085938 9.371094 29.746094 8.988281 C 29.640625 8.839844 29.496094 8.753906 29.316406 8.734375 C 29.136719 8.714844 28.976562 8.765625 28.839844 8.882812 C 28.703125 9.003906 28.632812 9.152344 28.628906 9.335938 C 28.625 9.515625 28.691406 9.667969 28.820312 9.792969 C 29.132812 10.148438 29.421875 10.519531 29.695312 10.902344 C 29.964844 11.285156 30.214844 11.683594 30.445312 12.09375 C 30.675781 12.503906 30.886719 12.925781 31.070312 13.359375 C 31.257812 13.789062 31.421875 14.230469 31.5625 14.679688 C 31.703125 15.128906 31.820312 15.582031 31.914062 16.046875 C 32.007812 16.507812 32.074219 16.972656 32.121094 17.441406 C 32.164062 17.90625 32.183594 18.378906 32.179688 18.847656 C 32.175781 19.320312 32.148438 19.789062 32.097656 20.253906 C 32.042969 20.722656 31.964844 21.1875 31.863281 21.644531 C 31.765625 22.105469 31.640625 22.558594 31.492188 23.003906 C 31.34375 23.453125 31.171875 23.890625 30.976562 24.320312 C 30.785156 24.746094 30.570312 25.164062 30.332031 25.570312 C 30.09375 25.976562 29.835938 26.371094 29.558594 26.75 C 29.28125 27.128906 28.984375 27.496094 28.667969 27.84375 C 28.351562 28.191406 28.019531 28.523438 27.667969 28.835938 C 27.316406 29.152344 26.953125 29.445312 26.570312 29.722656 Z M 26.558594 29.699219 " fill-opacity="1" fillRule="nonzero"/><path fill="#000000" d="M 11.71875 14.800781 L 11.71875 32.074219 C 11.71875 32.316406 11.765625 32.554688 11.859375 32.78125 C 11.953125 33.007812 12.085938 33.207031 12.261719 33.378906 C 12.433594 33.554688 12.632812 33.6875 12.859375 33.78125 C 13.085938 33.875 13.324219 33.921875 13.570312 33.921875 C 13.8125 33.921875 14.050781 33.875 14.277344 33.78125 C 14.503906 33.6875 14.703125 33.554688 14.878906 33.378906 C 15.050781 33.207031 15.183594 33.007812 15.277344 32.78125 C 15.371094 32.554688 15.417969 32.316406 15.417969 32.074219 L 15.417969 14.832031 C 15.988281 14.503906 16.4375 14.058594 16.765625 13.492188 C 17.097656 12.925781 17.265625 12.3125 17.269531 11.65625 L 17.269531 5.019531 C 17.269531 4.851562 17.210938 4.703125 17.089844 4.585938 C 16.96875 4.464844 16.824219 4.402344 16.652344 4.402344 C 16.484375 4.402344 16.335938 4.464844 16.21875 4.585938 C 16.097656 4.703125 16.035156 4.851562 16.035156 5.019531 L 16.035156 11.65625 C 16.03125 12.144531 15.894531 12.589844 15.628906 12.996094 C 15.359375 13.402344 15 13.703125 14.554688 13.894531 L 14.5 13.933594 C 14.453125 13.960938 14.40625 13.992188 14.363281 14.03125 C 14.339844 14.0625 14.316406 14.097656 14.296875 14.128906 C 14.269531 14.160156 14.25 14.191406 14.234375 14.230469 C 14.214844 14.28125 14.203125 14.339844 14.199219 14.394531 C 14.199219 14.394531 14.199219 14.4375 14.199219 14.464844 L 14.199219 32.074219 C 14.199219 32.242188 14.136719 32.386719 14.015625 32.507812 C 13.898438 32.628906 13.75 32.6875 13.582031 32.6875 C 13.410156 32.6875 13.265625 32.628906 13.144531 32.507812 C 13.023438 32.386719 12.964844 32.242188 12.964844 32.074219 L 12.964844 14.46875 C 12.96875 14.449219 12.96875 14.433594 12.964844 14.414062 C 12.960938 14.351562 12.949219 14.292969 12.925781 14.234375 C 12.910156 14.199219 12.890625 14.167969 12.867188 14.136719 C 12.847656 14.101562 12.824219 14.066406 12.796875 14.039062 C 12.75 13.992188 12.695312 13.957031 12.636719 13.925781 L 12.605469 13.925781 C 12.320312 13.808594 12.066406 13.636719 11.847656 13.414062 C 11.34375 12.9375 11.097656 12.351562 11.101562 11.65625 L 11.101562 5.019531 C 11.101562 4.851562 11.042969 4.703125 10.921875 4.585938 C 10.800781 4.464844 10.65625 4.402344 10.484375 4.402344 C 10.316406 4.402344 10.167969 4.464844 10.050781 4.585938 C 9.929688 4.703125 9.867188 4.851562 9.867188 5.019531 L 9.867188 11.65625 C 9.867188 12.679688 10.230469 13.546875 10.953125 14.265625 C 11.1875 14.472656 11.445312 14.652344 11.71875 14.800781 Z M 11.71875 14.800781 " fill-opacity="1" fillRule="nonzero"/><path fill="#000000" d="M 14.628906 12.953125 C 14.800781 12.953125 14.945312 12.890625 15.066406 12.773438 C 15.1875 12.652344 15.246094 12.503906 15.246094 12.335938 L 15.246094 4.933594 C 15.246094 4.765625 15.1875 4.617188 15.066406 4.5 C 14.945312 4.378906 14.800781 4.316406 14.628906 4.316406 C 14.460938 4.316406 14.3125 4.378906 14.195312 4.5 C 14.074219 4.617188 14.011719 4.765625 14.011719 4.933594 L 14.011719 12.335938 C 14.011719 12.503906 14.074219 12.652344 14.195312 12.773438 C 14.3125 12.890625 14.460938 12.953125 14.628906 12.953125 Z M 14.628906 12.953125 " fill-opacity="1" fillRule="nonzero"/><path fill="#000000" d="M 12.515625 12.953125 C 12.683594 12.953125 12.832031 12.890625 12.949219 12.773438 C 13.070312 12.652344 13.132812 12.503906 13.132812 12.335938 L 13.132812 4.933594 C 13.132812 4.765625 13.070312 4.617188 12.949219 4.5 C 12.832031 4.378906 12.683594 4.316406 12.515625 4.316406 C 12.34375 4.316406 12.199219 4.378906 12.078125 4.5 C 11.957031 4.617188 11.898438 4.765625 11.898438 4.933594 L 11.898438 12.335938 C 11.898438 12.503906 11.957031 12.652344 12.078125 12.773438 C 12.199219 12.890625 12.34375 12.953125 12.515625 12.953125 Z M 12.515625 12.953125 " fill-opacity="1" fillRule="nonzero"/><path fill="#000000" d="M 22.203125 14.988281 L 22.203125 31.992188 C 22.203125 32.238281 22.25 32.472656 22.34375 32.699219 C 22.4375 32.925781 22.574219 33.128906 22.746094 33.300781 C 22.917969 33.472656 23.121094 33.609375 23.347656 33.703125 C 23.574219 33.796875 23.808594 33.84375 24.054688 33.84375 C 24.300781 33.84375 24.535156 33.796875 24.761719 33.703125 C 24.988281 33.609375 25.1875 33.472656 25.363281 33.300781 C 25.535156 33.128906 25.667969 32.925781 25.765625 32.699219 C 25.859375 32.472656 25.90625 32.238281 25.90625 31.992188 L 25.90625 14.988281 C 27.488281 14.1875 28.0625 12.335938 28.0625 10.855469 C 28.0625 7.699219 26.453125 4.316406 24.054688 4.316406 C 21.65625 4.316406 20.046875 7.699219 20.046875 10.855469 C 20.046875 12.335938 20.617188 14.1875 22.203125 14.988281 Z M 24.054688 5.550781 C 25.503906 5.550781 26.828125 8.078125 26.828125 10.855469 C 26.828125 12.089844 26.367188 13.53125 25.070312 14.007812 C 24.804688 14.105469 24.671875 14.300781 24.671875 14.585938 L 24.671875 31.992188 C 24.671875 32.164062 24.609375 32.308594 24.492188 32.429688 C 24.371094 32.546875 24.222656 32.609375 24.054688 32.609375 C 23.882812 32.609375 23.738281 32.546875 23.617188 32.429688 C 23.496094 32.308594 23.4375 32.164062 23.4375 31.992188 L 23.4375 14.585938 C 23.4375 14.300781 23.304688 14.105469 23.035156 14.007812 C 21.742188 13.53125 21.277344 12.0625 21.277344 10.855469 C 21.277344 8.078125 22.605469 5.550781 24.054688 5.550781 Z M 24.054688 5.550781 " fill-opacity="1" fillRule="nonzero"/><path strokeLinecap="butt" transform="matrix(0, 0.740132, -0.740132, 0, 12.651624, 14.807256)" fill="none" strokeLinejoin="miter" d="M 0.001807 0.500416 L 12.198752 0.500416 " stroke="#000000" strokeWidth="1" strokeOpacity="1" strokeMiterlimit="4"/></svg>