<svg xmlns="http://www.w3.org/2000/svg" xmlns:xlink="http://www.w3.org/1999/xlink" width="50" zoomAndPan="magnify" viewBox="0 0 37.5 37.499999" height="50" preserveAspectRatio="xMidYMid meet" version="1.0"><defs><clipPath id="7f43d0afe4"><path d="M 0 4.238281 L 37 4.238281 L 37 33.105469 L 0 33.105469 Z M 0 4.238281 " clip-rule="nonzero"/></clipPath></defs><g clip-path="url(#7f43d0afe4)"><path fill="#000000" d="M 1.03125 25.308594 C 3.042969 25.308594 5.054688 25.308594 7.066406 25.308594 C 7.410156 25.308594 7.691406 25.074219 7.792969 24.753906 C 9.050781 20.730469 10.304688 16.707031 11.5625 12.683594 C 11.078125 12.683594 10.59375 12.683594 10.109375 12.683594 C 11.617188 16.875 13.125 21.066406 14.636719 25.257812 C 14.875 25.925781 15.894531 26.027344 16.089844 25.257812 C 17.765625 18.636719 19.441406 12.011719 21.117188 5.390625 C 20.632812 5.390625 20.148438 5.390625 19.664062 5.390625 C 21.257812 14.445312 22.847656 23.496094 24.441406 32.550781 C 24.554688 33.179688 25.546875 33.296875 25.820312 32.730469 C 27.03125 30.226562 28.242188 27.722656 29.453125 25.222656 C 29.753906 24.597656 28.515625 25.308594 29.332031 25.308594 C 30.125 25.308594 30.917969 25.308594 31.710938 25.308594 C 33.136719 25.308594 34.558594 25.308594 35.980469 25.308594 C 36.953125 25.308594 36.953125 23.800781 35.980469 23.800781 C 33.636719 23.800781 31.289062 23.800781 28.941406 23.800781 C 28.691406 23.800781 28.402344 23.9375 28.289062 24.171875 C 27.03125 26.769531 25.777344 29.371094 24.519531 31.96875 C 24.976562 32.027344 25.4375 32.085938 25.898438 32.148438 C 24.304688 23.097656 22.710938 14.042969 21.117188 4.992188 C 20.988281 4.238281 19.839844 4.300781 19.664062 4.992188 C 17.988281 11.613281 16.3125 18.234375 14.636719 24.855469 C 15.121094 24.855469 15.605469 24.855469 16.089844 24.855469 C 14.582031 20.664062 13.074219 16.472656 11.5625 12.28125 C 11.3125 11.589844 10.339844 11.542969 10.109375 12.28125 C 8.851562 16.304688 7.59375 20.328125 6.335938 24.351562 C 6.578125 24.167969 6.820312 23.984375 7.066406 23.800781 C 5.054688 23.800781 3.042969 23.800781 1.03125 23.800781 C 0.0546875 23.800781 0.0546875 25.308594 1.03125 25.308594 Z M 1.03125 25.308594 " fill-opacity="1" fill-rule="nonzero"/></g></svg>