<svg xmlns="http://www.w3.org/2000/svg" xmlns:xlink="http://www.w3.org/1999/xlink" width="50" zoomAndPan="magnify" viewBox="0 0 37.5 37.499999" height="50" preserveAspectRatio="xMidYMid meet" version="1.0"><defs><clipPath id="e2dd1f33e0"><path d="M 0 0 L 37.007812 0 L 37.007812 37 L 0 37 Z M 0 0 " clip-rule="nonzero"/></clipPath></defs><g clip-path="url(#e2dd1f33e0)"><path fill="#000000" d="M 19.53125 4.574219 C 18.90625 4.160156 18.097656 4.160156 17.476562 4.574219 L 4.523438 13.207031 C 4.011719 13.550781 3.699219 14.128906 3.699219 14.746094 L 3.699219 31.269531 C 3.699219 32.292969 4.527344 33.121094 5.550781 33.121094 L 11.101562 33.121094 L 11.101562 25.71875 C 11.101562 22.652344 13.585938 20.167969 16.652344 20.167969 L 20.355469 20.167969 C 23.417969 20.167969 25.90625 22.652344 25.90625 25.71875 L 25.90625 33.121094 L 31.457031 33.121094 C 32.476562 33.121094 33.304688 32.292969 33.304688 31.269531 L 33.304688 14.746094 C 33.304688 14.128906 32.996094 13.550781 32.480469 13.207031 Z M 15.425781 1.496094 C 17.289062 0.25 19.71875 0.25 21.582031 1.496094 L 34.535156 10.128906 C 36.078125 11.160156 37.007812 12.890625 37.007812 14.746094 L 37.007812 31.269531 C 37.007812 34.335938 34.519531 36.820312 31.457031 36.820312 L 24.054688 36.820312 C 23.03125 36.820312 22.203125 35.992188 22.203125 34.972656 L 22.203125 25.71875 C 22.203125 24.699219 21.375 23.871094 20.355469 23.871094 L 16.652344 23.871094 C 15.632812 23.871094 14.800781 24.699219 14.800781 25.71875 L 14.800781 34.972656 C 14.800781 35.992188 13.972656 36.820312 12.953125 36.820312 L 5.550781 36.820312 C 2.484375 36.820312 0 34.335938 0 31.269531 L 0 14.746094 C 0 12.890625 0.925781 11.160156 2.472656 10.128906 Z M 15.425781 1.496094 " fill-opacity="1" fill-rule="evenodd"/></g></svg>