<svg xmlns="http://www.w3.org/2000/svg" xmlnsXlink="http://www.w3.org/1999/xlink" width="50" zoomAndPan="magnify" viewBox="0 0 37.5 37.499999" height="50" preserveAspectRatio="xMidYMid meet" version="1.0"><defs><clipPath id="a1698e304b"><path d="M 4.8125 3.699219 L 7.992188 3.699219 L 7.992188 6.882812 L 4.8125 6.882812 Z M 4.8125 3.699219 " clipRule="nonzero"/></clipPath><clipPath id="9c1a6850f2"><path d="M 6.402344 3.699219 C 5.523438 3.699219 4.8125 4.414062 4.8125 5.292969 C 4.8125 6.171875 5.523438 6.882812 6.402344 6.882812 C 7.28125 6.882812 7.992188 6.171875 7.992188 5.292969 C 7.992188 4.414062 7.28125 3.699219 6.402344 3.699219 Z M 6.402344 3.699219 " clipRule="nonzero"/></clipPath><clipPath id="bc7c2831e2"><path d="M 0 14 L 37.007812 14 L 37.007812 19 L 0 19 Z M 0 14 " clipRule="nonzero"/></clipPath><clipPath id="e1c06a4ea8"><path d="M 0 25 L 37.007812 25 L 37.007812 29.605469 L 0 29.605469 Z M 0 25 " clipRule="nonzero"/></clipPath><clipPath id="1fe14d24a4"><path d="M 0 3.699219 L 37.007812 3.699219 L 37.007812 9 L 0 9 Z M 0 3.699219 " clipRule="nonzero"/></clipPath></defs><g clipPath="url(#a1698e304b)"><g clipPath="url(#9c1a6850f2)"><path fill="#222222" d="M 4.8125 3.699219 L 7.992188 3.699219 L 7.992188 6.882812 L 4.8125 6.882812 Z M 4.8125 3.699219 " fillOpacity="1" fillRule="nonzero"/></g></g><g clipPath="url(#bc7c2831e2)"><path fill="#000000" d="M 34.695312 14.367188 L 2.3125 14.367188 C 1.035156 14.367188 0 15.390625 0 16.652344 C 0 17.914062 1.035156 18.9375 2.3125 18.9375 L 34.695312 18.9375 C 35.972656 18.9375 37.007812 17.914062 37.007812 16.652344 C 37.007812 15.390625 35.972656 14.367188 34.695312 14.367188 Z M 34.695312 14.367188 " fillOpacity="1" fillRule="nonzero"/></g><g clipPath="url(#e1c06a4ea8)"><path fill="#000000" d="M 34.695312 25.027344 L 2.3125 25.027344 C 1.035156 25.027344 0 26.050781 0 27.3125 C 0 28.574219 1.035156 29.597656 2.3125 29.597656 L 34.695312 29.597656 C 35.972656 29.597656 37.007812 28.574219 37.007812 27.3125 C 37.007812 26.050781 35.972656 25.027344 34.695312 25.027344 Z M 34.695312 25.027344 " fillOpacity="1" fillRule="nonzero"/></g><g clipPath="url(#1fe14d24a4)"><path fill="#000000" d="M 2.3125 8.277344 L 34.695312 8.277344 C 35.972656 8.277344 37.007812 7.253906 37.007812 5.992188 C 37.007812 4.730469 35.972656 3.707031 34.695312 3.707031 L 2.3125 3.707031 C 1.035156 3.707031 0 4.730469 0 5.992188 C 0 7.253906 1.035156 8.277344 2.3125 8.277344 Z M 2.3125 8.277344 " fillOpacity="1" fillRule="nonzero"/></g></svg>