<svg xmlns="http://www.w3.org/2000/svg" xmlns:xlink="http://www.w3.org/1999/xlink" width="50" zoomAndPan="magnify" viewBox="0 0 37.5 37.499999" height="50" preserveAspectRatio="xMidYMid meet" version="1.0"><defs><clipPath id="242dd7c0e0"><path d="M 0.726562 0.113281 L 27 0.113281 L 27 37.007812 L 0.726562 37.007812 Z M 0.726562 0.113281 " clip-rule="nonzero"/></clipPath><clipPath id="6f0dd0bac3"><path d="M 11 11 L 36.25 11 L 36.25 26 L 11 26 Z M 11 11 " clip-rule="nonzero"/></clipPath></defs><g clip-path="url(#242dd7c0e0)"><path fill="#000000" d="M 24.847656 23.222656 C 24.695312 23.222656 24.542969 23.25 24.402344 23.308594 C 24.257812 23.371094 24.132812 23.453125 24.023438 23.5625 C 23.914062 23.671875 23.832031 23.800781 23.769531 23.945312 C 23.710938 24.085938 23.683594 24.238281 23.683594 24.390625 L 23.683594 30.164062 C 23.683594 30.464844 23.652344 30.765625 23.59375 31.0625 C 23.535156 31.359375 23.449219 31.644531 23.332031 31.925781 C 23.21875 32.203125 23.078125 32.46875 22.910156 32.722656 C 22.742188 32.972656 22.550781 33.207031 22.339844 33.417969 C 22.125 33.632812 21.894531 33.824219 21.644531 33.992188 C 21.394531 34.160156 21.128906 34.300781 20.851562 34.417969 C 20.574219 34.53125 20.285156 34.621094 19.992188 34.679688 C 19.695312 34.738281 19.398438 34.769531 19.09375 34.765625 L 7.59375 34.765625 C 7.292969 34.769531 6.996094 34.738281 6.699219 34.679688 C 6.402344 34.621094 6.117188 34.535156 5.839844 34.417969 C 5.558594 34.300781 5.296875 34.160156 5.046875 33.992188 C 4.792969 33.824219 4.5625 33.632812 4.351562 33.417969 C 4.136719 33.207031 3.945312 32.972656 3.78125 32.722656 C 3.613281 32.46875 3.472656 32.207031 3.355469 31.925781 C 3.242188 31.644531 3.152344 31.359375 3.09375 31.0625 C 3.035156 30.765625 3.007812 30.464844 3.007812 30.164062 L 3.007812 7.070312 C 3.007812 6.769531 3.035156 6.46875 3.09375 6.171875 C 3.152344 5.875 3.242188 5.589844 3.355469 5.308594 C 3.472656 5.027344 3.613281 4.765625 3.78125 4.511719 C 3.945312 4.261719 4.136719 4.027344 4.351562 3.816406 C 4.5625 3.601562 4.792969 3.410156 5.046875 3.242188 C 5.296875 3.074219 5.558594 2.933594 5.839844 2.816406 C 6.117188 2.699219 6.402344 2.613281 6.699219 2.554688 C 6.996094 2.496094 7.292969 2.464844 7.59375 2.464844 L 19.097656 2.464844 C 19.398438 2.464844 19.695312 2.496094 19.992188 2.554688 C 20.285156 2.613281 20.574219 2.703125 20.851562 2.816406 C 21.128906 2.933594 21.394531 3.074219 21.644531 3.242188 C 21.894531 3.410156 22.128906 3.601562 22.339844 3.816406 C 22.554688 4.027344 22.742188 4.261719 22.910156 4.511719 C 23.078125 4.765625 23.21875 5.03125 23.335938 5.308594 C 23.449219 5.589844 23.535156 5.875 23.59375 6.171875 C 23.652344 6.46875 23.683594 6.769531 23.683594 7.070312 L 23.683594 12.84375 C 23.683594 12.996094 23.714844 13.148438 23.773438 13.289062 C 23.832031 13.433594 23.917969 13.558594 24.027344 13.667969 C 24.136719 13.777344 24.261719 13.863281 24.402344 13.921875 C 24.546875 13.980469 24.695312 14.011719 24.847656 14.011719 C 25.003906 14.011719 25.152344 13.980469 25.296875 13.921875 C 25.4375 13.863281 25.5625 13.777344 25.671875 13.667969 C 25.78125 13.558594 25.867188 13.433594 25.925781 13.289062 C 25.984375 13.148438 26.015625 12.996094 26.015625 12.84375 L 26.015625 7.070312 C 26.015625 6.613281 25.972656 6.164062 25.882812 5.714844 C 25.792969 5.269531 25.664062 4.835938 25.488281 4.414062 C 25.316406 3.992188 25.101562 3.59375 24.847656 3.210938 C 24.597656 2.832031 24.308594 2.484375 23.988281 2.160156 C 23.667969 1.839844 23.316406 1.550781 22.941406 1.296875 C 22.5625 1.042969 22.164062 0.828125 21.746094 0.65625 C 21.324219 0.480469 20.890625 0.347656 20.445312 0.257812 C 20 0.171875 19.550781 0.125 19.097656 0.125 L 7.59375 0.125 C 7.140625 0.125 6.691406 0.171875 6.246094 0.257812 C 5.796875 0.347656 5.367188 0.480469 4.945312 0.65625 C 4.527344 0.828125 4.128906 1.042969 3.75 1.296875 C 3.371094 1.550781 3.023438 1.835938 2.703125 2.160156 C 2.378906 2.480469 2.09375 2.832031 1.839844 3.210938 C 1.589844 3.589844 1.375 3.992188 1.203125 4.414062 C 1.027344 4.835938 0.898438 5.269531 0.808594 5.714844 C 0.71875 6.164062 0.675781 6.613281 0.675781 7.070312 L 0.675781 30.164062 C 0.675781 30.621094 0.71875 31.070312 0.808594 31.519531 C 0.898438 31.964844 1.027344 32.398438 1.203125 32.820312 C 1.375 33.242188 1.589844 33.644531 1.839844 34.023438 C 2.09375 34.402344 2.378906 34.75 2.703125 35.074219 C 3.023438 35.398438 3.371094 35.683594 3.75 35.9375 C 4.128906 36.191406 4.527344 36.40625 4.945312 36.578125 C 5.367188 36.753906 5.796875 36.886719 6.246094 36.976562 C 6.691406 37.0625 7.140625 37.109375 7.59375 37.109375 L 19.097656 37.109375 C 19.550781 37.109375 20 37.0625 20.445312 36.972656 C 20.890625 36.886719 21.324219 36.753906 21.746094 36.578125 C 22.164062 36.40625 22.5625 36.191406 22.941406 35.9375 C 23.316406 35.683594 23.667969 35.394531 23.988281 35.074219 C 24.308594 34.75 24.597656 34.402344 24.847656 34.023438 C 25.101562 33.640625 25.316406 33.242188 25.488281 32.820312 C 25.664062 32.398438 25.792969 31.964844 25.882812 31.519531 C 25.972656 31.070312 26.015625 30.621094 26.015625 30.164062 L 26.015625 24.390625 C 26.015625 24.234375 25.984375 24.085938 25.925781 23.945312 C 25.867188 23.800781 25.78125 23.671875 25.671875 23.5625 C 25.5625 23.453125 25.4375 23.371094 25.292969 23.308594 C 25.152344 23.25 25.003906 23.222656 24.847656 23.222656 Z M 24.847656 23.222656 " fill-opacity="1" fill-rule="evenodd"/></g><g clip-path="url(#6f0dd0bac3)"><path fill="#000000" d="M 29.949219 12.011719 C 29.839844 11.898438 29.714844 11.808594 29.570312 11.746094 C 29.425781 11.683594 29.273438 11.648438 29.117188 11.648438 C 28.960938 11.644531 28.808594 11.675781 28.664062 11.734375 C 28.515625 11.792969 28.386719 11.878906 28.277344 11.992188 C 28.164062 12.101562 28.078125 12.230469 28.019531 12.378906 C 27.960938 12.523438 27.933594 12.675781 27.933594 12.832031 C 27.9375 12.992188 27.96875 13.144531 28.03125 13.289062 C 28.09375 13.433594 28.183594 13.558594 28.296875 13.667969 L 32.058594 17.445312 L 12.800781 17.445312 C 12.644531 17.445312 12.496094 17.472656 12.355469 17.535156 C 12.210938 17.59375 12.085938 17.675781 11.976562 17.785156 C 11.867188 17.898438 11.78125 18.023438 11.722656 18.167969 C 11.664062 18.308594 11.636719 18.460938 11.636719 18.613281 C 11.636719 18.769531 11.664062 18.917969 11.722656 19.0625 C 11.78125 19.207031 11.867188 19.332031 11.976562 19.441406 C 12.085938 19.550781 12.210938 19.636719 12.355469 19.695312 C 12.496094 19.753906 12.644531 19.785156 12.800781 19.785156 L 32.0625 19.785156 L 28.296875 23.558594 C 28.1875 23.667969 28.105469 23.796875 28.042969 23.941406 C 27.984375 24.082031 27.953125 24.234375 27.953125 24.386719 C 27.953125 24.542969 27.984375 24.695312 28.042969 24.835938 C 28.101562 24.980469 28.1875 25.109375 28.296875 25.21875 C 28.40625 25.328125 28.53125 25.414062 28.675781 25.472656 C 28.816406 25.53125 28.964844 25.5625 29.121094 25.5625 C 29.277344 25.5625 29.425781 25.535156 29.570312 25.476562 C 29.710938 25.414062 29.839844 25.332031 29.949219 25.222656 L 35.699219 19.449219 C 35.808594 19.339844 35.890625 19.210938 35.949219 19.070312 C 36.007812 18.925781 36.039062 18.777344 36.039062 18.621094 C 36.039062 18.464844 36.007812 18.316406 35.949219 18.171875 C 35.890625 18.027344 35.808594 17.902344 35.699219 17.792969 Z M 29.949219 12.011719 " fill-opacity="1" fill-rule="evenodd"/></g><path stroke-linecap="butt" transform="matrix(0.740132, 0.000000000000000082, -0.000000000000000082, 0.740132, 6.661184, 0.113846)" fill="none" stroke-linejoin="miter" d="M -0.00138895 0.500626 L 16.000834 0.500626 " stroke="#000000" stroke-width="1" stroke-opacity="1" stroke-miterlimit="4"/></svg>